<svg xmlns="http://www.w3.org/2000/svg" viewBox="0 0 192 192"><title>Artboard 3</title><path d="M149.08,17.48C140.07,8.14,125.6,3,105,7.5,69.61,15.22,12,65.1,13,125.59c.32,23.49,10,46,36.37,56.31,10,3.86,32.17,8,49.55-1.93,10.29-6.12,12.23-15.45,12.23-20,0-3.53-2.58-3.53-4.83-1.28C93.09,171.28,67.68,179.32,50,171.28c-25.74-11.59-27.35-60.5,1.93-101.36C80.55,29.7,119.19,15.6,141.36,24.23c21.18,8.24,27.4,38.94,21.18,59.55-3.71,11.32-15.68,27.06-28.2,26.61,5.15-3.11,10.18-9.62,14.24-18.56,5-11.12,8-23.19,1.49-30.1-5.82-6.1-13.82-2.31-19.79,2.84a14.54,14.54,0,0,0-.82-6.09c-.67-1.64-1.89-1.91-3.25-.14-4.79,6.39-14.06,22.71-22,38.14a66.31,66.31,0,0,1-19.35,14.45c5.7-13.13,14.24-29.55,18.31-37.67,3.39-6.65,2.3-12.47.27-14.92-1-1.22-2.31-1.08-3.39.81-1.35,2.31-2.85,4.75-4.47,7.46.13-4.74-2.58-8.94-8-8.94-6.92,0-17.89,6.09-28.47,21.82-11,16.27-8.54,33.21,3.93,33.21,5,0,9.77-2.85,13.7-6.78-1.36,3.12-2.58,6.38-3.93,9.36-13.43,5.15-25.08,13.42-29,25.62-2.56,8-.12,12.74,2.72,16.81,2.44,3.53,5.15,3.93,7.86,2.84,11-4.34,20.61-25.89,28.07-44.05a76.38,76.38,0,0,0,15.5-7.38,147.07,147.07,0,0,0-7.1,16.73c-2.58,8.27-1.9,12.07.14,14.92.81,1.21,1.75.94,2.31-.27,6.5-15.06,13.4-28.88,19.78-40.54a14.11,14.11,0,0,0,4.61,9.08c4.74,4.34,14.61,4.89,19.12,5,15.44.44,33-9.23,39.57-26.62C182.65,70.66,179.5,28,149.08,17.48ZM49.21,153c-2.3-3.26,3.67-21.84,21.29-32.13C61.69,141.44,51,155.54,49.21,153ZM64.67,108.5c-5.43-.14-3.93-12.07,3.38-23.73C75.51,73,85.4,64.3,89.62,64.57c3.93.27,2.7,8.69-5.84,23.59C76.86,100.1,70,108.63,64.67,108.5Zm55.71-2.31c-3.79-3.11-3.12-11.24.27-19.78,1.63-2.85,3.12-5.3,4.61-7.73,6.38-10.45,14.78-17.22,18-15.59s1.9,12.87-3.38,23.72C133.53,99.82,124.72,109.72,120.38,106.19Z"/></svg>