<svg xmlns="http://www.w3.org/2000/svg" viewBox="0 0 46 46"><title>Small</title><path d="M34.32,6.26c-1.92-2-5-3.09-9.4-2.13C17.37,5.78,5.1,16.41,5.3,29.31c.07,5,2.13,9.81,7.75,12,2.13.83,6.86,1.72,10.57-.41a5,5,0,0,0,2.6-4.25c0-.76-.55-.76-1-.28-2.81,2.68-8.23,4.39-12,2.68-5.49-2.47-5.83-12.9.41-21.61S27.94,5.86,32.67,7.7c4.51,1.76,5.84,8.3,4.51,12.7-.78,2.41-3.34,5.76-6,5.67a8.9,8.9,0,0,0,3-4c1.07-2.37,1.7-4.94.32-6.42-1.24-1.3-3-.49-4.22.61a3,3,0,0,0-.18-1.3c-.14-.35-.4-.41-.69,0a74.57,74.57,0,0,0-4.69,8.13,14.08,14.08,0,0,1-4.12,3.08c1.21-2.8,3-6.3,3.9-8A3.07,3.07,0,0,0,24.59,15c-.21-.26-.5-.23-.73.17s-.6,1-.95,1.59a1.69,1.69,0,0,0-1.7-1.9c-1.48,0-3.82,1.3-6.07,4.65s-1.82,7.08.83,7.08a4.31,4.31,0,0,0,2.92-1.44c-.29.66-.55,1.36-.83,2-2.87,1.1-5.35,2.86-6.19,5.46a3.63,3.63,0,0,0,.58,3.59,1.28,1.28,0,0,0,1.67.6c2.35-.92,4.4-5.52,6-9.39a16.79,16.79,0,0,0,3.3-1.57,31.25,31.25,0,0,0-1.51,3.56c-.55,1.77-.41,2.58,0,3.18.17.26.37.2.49,0,1.39-3.21,2.86-6.16,4.22-8.65a3,3,0,0,0,1,1.94c1,.93,3.11,1,4.08,1.07a9,9,0,0,0,8.43-5.68C41.47,17.6,40.8,8.5,34.32,6.26ZM13,35.14c-.48-.69.79-4.65,4.54-6.84C15.69,32.69,13.4,35.69,13,35.14Zm3.3-9.48c-1.16,0-.84-2.57.72-5.05s3.7-4.37,4.6-4.31.58,1.85-1.24,5C18.92,23.87,17.45,25.69,16.32,25.66Zm11.88-.49c-.81-.66-.67-2.39.05-4.21.35-.61.67-1.13,1-1.65,1.36-2.23,3.15-3.67,3.84-3.33s.41,2.75-.72,5.06C31,23.81,29.12,25.93,28.2,25.17Z"/></svg>