<svg xmlns="http://www.w3.org/2000/svg" viewBox="0 0 96 96"><title>Medium</title><path d="M74,9.5C69.61,4.92,62.51,2.4,52.41,4.6,35.06,8.39,6.82,32.85,7.29,62.51,7.44,74,12.18,85.07,25.12,90.12c4.89,1.9,15.78,3.94,24.3-1a11.55,11.55,0,0,0,6-9.78c0-1.73-1.26-1.73-2.37-.63-6.46,6.16-18.93,10.1-27.61,6.16C12.81,79.23,12,55.25,26.38,35.21c14-19.72,33-26.64,43.86-22.4,10.39,4,13.44,19.09,10.39,29.2-1.82,5.55-7.69,13.27-13.83,13.05,2.53-1.53,5-4.72,7-9.1,2.46-5.46,3.92-11.37.73-14.77-2.85-3-6.77-1.13-9.7,1.4a7.27,7.27,0,0,0-.4-3c-.33-.8-.93-.93-1.59-.07C60.47,32.67,55.92,40.67,52,48.24a32.69,32.69,0,0,1-9.49,7.08c2.79-6.44,7-14.49,9-18.47,1.66-3.26,1.13-6.12.13-7.32-.47-.6-1.13-.53-1.66.4-.67,1.13-1.4,2.33-2.2,3.66.07-2.33-1.26-4.39-3.92-4.39-3.39,0-8.77,3-14,10.7-5.39,8-4.19,16.29,1.93,16.29,2.46,0,4.79-1.4,6.71-3.32-.66,1.52-1.26,3.12-1.92,4.58C30,60,24.33,64,22.4,70a8.35,8.35,0,0,0,1.33,8.24c1.19,1.73,2.52,1.93,3.85,1.4C33,77.53,37.69,67,41.35,58.05a37.27,37.27,0,0,0,7.59-3.62,74.85,74.85,0,0,0-3.48,8.21c-1.26,4-.92,5.92.07,7.31.4.6.86.46,1.13-.13,3.19-7.38,6.58-14.16,9.71-19.88a6.87,6.87,0,0,0,2.26,4.45c2.32,2.13,7.16,2.4,9.37,2.46A20.61,20.61,0,0,0,87.41,43.8C90.49,35.58,88.94,14.64,74,9.5Zm-49,66.43c-1.12-1.59,1.8-10.7,10.45-15.75C31.18,70.28,25.92,77.2,25.05,75.93Zm7.58-21.8c-2.65-.07-1.92-5.92,1.67-11.64s8.5-10,10.57-9.9S46.2,36.85,42,44.16C38.62,50,35.23,54.19,32.63,54.13ZM60,53c-1.85-1.53-1.52-5.52.14-9.7.8-1.4,1.53-2.6,2.26-3.79,3.12-5.13,7.24-8.45,8.84-7.65s.93,6.31-1.66,11.63C66.4,49.87,62.08,54.73,60,53Z"/></svg>